<svg width="205" height="230" viewBox="0 0 205 230" fill="none" xmlns="http://www.w3.org/2000/svg">
<path d="M104.341 225.112L171.215 146.201H37.4663L104.341 225.112Z" fill="black"/>
<path d="M8.04154 57.4807L37.4663 146.201L101.22 24.0435L8.04154 57.4807Z" fill="black"/>
<path d="M3.58325 169.384L37.4663 146.201L8.04154 57.4807L3.58325 169.384Z" fill="black"/>
<path d="M101.22 3.9812V24.0435L193.506 51.2391L101.22 3.9812Z" fill="black"/>
<path d="M171.215 146.201L101.22 24.0435L37.4663 146.201H171.215Z" fill="black"/>
<path d="M3.58325 169.384L104.341 225.112L37.4663 146.201L3.58325 169.384Z" fill="black"/>
<path d="M193.506 51.2391L101.22 24.0435L171.215 146.201L193.506 51.2391Z" fill="black"/>
<path fill-rule="evenodd" clip-rule="evenodd" d="M200.64 167.155L193.506 51.2391L171.215 146.201L200.64 167.155Z" fill="black"/>
<path d="M200.64 167.155L171.215 146.201L104.341 225.112L200.64 167.155Z" fill="black"/>
<path d="M101.22 24.0435V3.9812L8.04154 57.4807L101.22 24.0435Z" fill="black"/>
<path d="M101.22 3.9812V24.0435M101.22 3.9812L8.04154 57.4807M101.22 3.9812L193.506 51.2391M101.22 24.0435L193.506 51.2391M101.22 24.0435L171.215 146.201M101.22 24.0435L37.4663 146.201M101.22 24.0435L8.04154 57.4807M193.506 51.2391L171.215 146.201M193.506 51.2391L200.64 167.155M171.215 146.201L200.64 167.155M171.215 146.201L104.341 225.112M171.215 146.201H37.4663M200.64 167.155L104.341 225.112M104.341 225.112L3.58325 169.384M104.341 225.112L37.4663 146.201M3.58325 169.384L37.4663 146.201M3.58325 169.384L8.04154 57.4807M37.4663 146.201L8.04154 57.4807" stroke="#EE4384" stroke-width="7"/>
</svg>
